<?xml version="1.0" standalone="no"?>
<!DOCTYPE svg PUBLIC "-//W3C//DTD SVG 20010904//EN"
 "http://www.w3.org/TR/2001/REC-SVG-20010904/DTD/svg10.dtd">
<svg version="1.0" xmlns="http://www.w3.org/2000/svg"
 width="364.000000pt" height="686.000000pt" viewBox="0 0 364.000000 686.000000"
 preserveAspectRatio="xMidYMid meet">

<g transform="translate(0.000000,686.000000) scale(0.100000,-0.100000)"
fill="#000000" stroke="none">
<path d="M3 6368 l3 -433 324 -992 325 -993 1060 -2 1060 -3 -260 -186 c-143
-102 -422 -302 -620 -444 -198 -142 -467 -334 -598 -428 -131 -93 -236 -175
-234 -181 2 -6 18 -54 35 -106 107 -331 615 -1867 620 -1874 9 -16 -43 19
-193 130 -38 28 -203 147 -365 264 -480 348 -682 494 -913 662 -120 88 -225
162 -233 165 -12 4 -14 -20 -14 -155 l0 -160 68 -50 c37 -27 283 -206 547
-397 578 -418 761 -552 1050 -761 476 -346 573 -415 563 -398 -3 5 -51 146
-106 314 -84 255 -592 1798 -708 2149 -19 57 -34 110 -34 117 0 7 64 58 142
115 130 93 284 203 1081 774 139 99 418 299 622 445 l369 265 -1371 3 -1371 2
-102 313 c-56 171 -153 472 -217 667 -63 195 -152 470 -198 610 -46 140 -138
423 -205 628 -66 204 -123 372 -126 372 -2 0 -3 -195 -1 -432z"/>
</g>
</svg>
